# xmcd CD database file
#
# Track frame offsets:
#	150
#	29801
#	63077
#	96142
#	125717
#	161082
#	205806
#	241816
#	267808
#	294641
#
# Disc length: 4228 seconds
#
# Revision: 2
# Processed by: cddbd v1.5.2PL0 Copyright (c) Steve Scherf et al.
# Submitted via: CDex 1.51
#
DISCID=9110820a
DTITLE=Jof Lee, Mel Brown, Tim Gilson - Live at Salty's
DYEAR=2007
DGENRE=Jazz
TTITLE0=Light and Lovely
TTITLE1=The Look of Love
TTITLE2=Blue Moon
TTITLE3=Wrap Your Troubles in Dreams
TTITLE4=Billy Boy
TTITLE5=Old Devil Moon
TTITLE6=Basin Street Blues
TTITLE7=Willow Weep for Me
TTITLE8=Taking a Chance on Love
TTITLE9=Mombo Jambo
EXTD=YEAR: 2007
EXTT0=
EXTT1=
EXTT2=
EXTT3=
EXTT4=
EXTT5=
EXTT6=
EXTT7=
EXTT8=
EXTT9=
PLAYORDER=
